REM DIRINDEX 1\2,1\3
REM DIRNAME folder01,folder02,folder03
TITLE ""
FILE "1921-1940.mp3" MP3
  TRACK 01 AUDIO
    TITLE "0:"
    INDEX 01 00:00:00
  TRACK 02 AUDIO
    TITLE "2:cjc039_2841"
    INDEX 01 00:00:25
  TRACK 03 AUDIO
    TITLE "0:"
    INDEX 01 00:01:19
  TRACK 04 AUDIO
    TITLE "3:cjc039_2842"
    INDEX 01 00:02:00
  TRACK 05 AUDIO
    TITLE "0:"
    INDEX 01 00:05:01
  TRACK 06 AUDIO
    TITLE "2:cjc039_2843"
    INDEX 01 00:06:55
  TRACK 07 AUDIO
    TITLE "0:"
    INDEX 01 00:07:64
  TRACK 08 AUDIO
    TITLE "3:cjc039_2844"
    INDEX 01 00:08:44
  TRACK 09 AUDIO
    TITLE "0:"
    INDEX 01 00:12:22
  TRACK 10 AUDIO
    TITLE "2:cjc039_2845"
    INDEX 01 00:14:00
  TRACK 11 AUDIO
    TITLE "0:"
    INDEX 01 00:15:09
  TRACK 12 AUDIO
    TITLE "3:cjc039_2846"
    INDEX 01 00:15:64
  TRACK 13 AUDIO
    TITLE "0:"
    INDEX 01 00:19:65
  TRACK 14 AUDIO
    TITLE "2:cjc039_2847"
    INDEX 01 00:21:39
  TRACK 15 AUDIO
    TITLE "0:"
    INDEX 01 00:22:48
  TRACK 16 AUDIO
    TITLE "3:cjc039_2848"
    INDEX 01 00:23:24
  TRACK 17 AUDIO
    TITLE "0:"
    INDEX 01 00:26:46
  TRACK 18 AUDIO
    TITLE "2:cjc039_2849"
    INDEX 01 00:28:19
  TRACK 19 AUDIO
    TITLE "0:"
    INDEX 01 00:29:36
  TRACK 20 AUDIO
    TITLE "3:cjc039_2850"
    INDEX 01 00:30:12
  TRACK 21 AUDIO
    TITLE "0:"
    INDEX 01 00:33:66
  TRACK 22 AUDIO
    TITLE "2:cjc039_2851"
    INDEX 01 00:35:43
  TRACK 23 AUDIO
    TITLE "0:"
    INDEX 01 00:37:18
  TRACK 24 AUDIO
    TITLE "3:cjc039_2852"
    INDEX 01 00:37:69
  TRACK 25 AUDIO
    TITLE "0:"
    INDEX 01 00:41:61
  TRACK 26 AUDIO
    TITLE "2:cjc039_2853"
    INDEX 01 00:43:39
  TRACK 27 AUDIO
    TITLE "0:"
    INDEX 01 00:44:34
  TRACK 28 AUDIO
    TITLE "3:cjc039_2854"
    INDEX 01 00:45:12
  TRACK 29 AUDIO
    TITLE "0:"
    INDEX 01 00:48:18
  TRACK 30 AUDIO
    TITLE "2:cjc039_2855"
    INDEX 01 00:50:01
  TRACK 31 AUDIO
    TITLE "0:"
    INDEX 01 00:51:36
  TRACK 32 AUDIO
    TITLE "3:cjc039_2856"
    INDEX 01 00:52:12
  TRACK 33 AUDIO
    TITLE "0:"
    INDEX 01 00:55:73
  TRACK 34 AUDIO
    TITLE "2:cjc039_2857"
    INDEX 01 00:57:48
  TRACK 35 AUDIO
    TITLE "0:"
    INDEX 01 00:58:60
  TRACK 36 AUDIO
    TITLE "3:cjc039_2858"
    INDEX 01 00:59:36
  TRACK 37 AUDIO
    TITLE "0:"
    INDEX 01 01:02:69
  TRACK 38 AUDIO
    TITLE "2:cjc039_2859"
    INDEX 01 01:04:47
  TRACK 39 AUDIO
    TITLE "0:"
    INDEX 01 01:06:10
  TRACK 40 AUDIO
    TITLE "3:cjc039_2860"
    INDEX 01 01:06:55
  TRACK 41 AUDIO
    TITLE "0:"
    INDEX 01 01:11:05
  TRACK 42 AUDIO
    TITLE "2:cjc039_2861"
    INDEX 01 01:12:56
  TRACK 43 AUDIO
    TITLE "0:"
    INDEX 01 01:13:63
  TRACK 44 AUDIO
    TITLE "3:cjc039_2862"
    INDEX 01 01:14:43
  TRACK 45 AUDIO
    TITLE "0:"
    INDEX 01 01:18:09
  TRACK 46 AUDIO
    TITLE "2:cjc039_2863"
    INDEX 01 01:19:64
  TRACK 47 AUDIO
    TITLE "0:"
    INDEX 01 01:21:04
  TRACK 48 AUDIO
    TITLE "3:cjc039_2864"
    INDEX 01 01:21:51
  TRACK 49 AUDIO
    TITLE "0:"
    INDEX 01 01:25:08
  TRACK 50 AUDIO
    TITLE "2:cjc039_2865"
    INDEX 01 01:26:52
  TRACK 51 AUDIO
    TITLE "0:"
    INDEX 01 01:27:51
  TRACK 52 AUDIO
    TITLE "3:cjc039_2866"
    INDEX 01 01:28:27
  TRACK 53 AUDIO
    TITLE "0:"
    INDEX 01 01:31:45
  TRACK 54 AUDIO
    TITLE "2:cjc039_2867"
    INDEX 01 01:33:21
  TRACK 55 AUDIO
    TITLE "0:"
    INDEX 01 01:34:30
  TRACK 56 AUDIO
    TITLE "3:cjc039_2868"
    INDEX 01 01:35:10
  TRACK 57 AUDIO
    TITLE "0:"
    INDEX 01 01:39:51
  TRACK 58 AUDIO
    TITLE "2:cjc039_2869"
    INDEX 01 01:41:26
  TRACK 59 AUDIO
    TITLE "0:"
    INDEX 01 01:42:39
  TRACK 60 AUDIO
    TITLE "3:cjc039_2870"
    INDEX 01 01:43:15
  TRACK 61 AUDIO
    TITLE "0:"
    INDEX 01 01:46:33
  TRACK 62 AUDIO
    TITLE "2:cjc039_2871"
    INDEX 01 01:48:16
  TRACK 63 AUDIO
    TITLE "0:"
    INDEX 01 01:49:43
  TRACK 64 AUDIO
    TITLE "3:cjc039_2872"
    INDEX 01 01:50:19
  TRACK 65 AUDIO
    TITLE "0:"
    INDEX 01 01:53:61
  TRACK 66 AUDIO
    TITLE "2:cjc039_2873"
    INDEX 01 01:55:38
  TRACK 67 AUDIO
    TITLE "0:"
    INDEX 01 01:58:34
  TRACK 68 AUDIO
    TITLE "3:cjc039_2874"
    INDEX 01 01:59:10
  TRACK 69 AUDIO
    TITLE "0:"
    INDEX 01 02:02:36
  TRACK 70 AUDIO
    TITLE "2:cjc039_2875"
    INDEX 01 02:04:15
  TRACK 71 AUDIO
    TITLE "0:"
    INDEX 01 02:05:42
  TRACK 72 AUDIO
    TITLE "3:cjc039_2876"
    INDEX 01 02:06:14
  TRACK 73 AUDIO
    TITLE "0:"
    INDEX 01 02:09:30
  TRACK 74 AUDIO
    TITLE "2:cjc039_2877"
    INDEX 01 02:11:02
  TRACK 75 AUDIO
    TITLE "0:"
    INDEX 01 02:12:01
  TRACK 76 AUDIO
    TITLE "3:cjc039_2878"
    INDEX 01 02:12:54
  TRACK 77 AUDIO
    TITLE "0:"
    INDEX 01 02:15:58
  TRACK 78 AUDIO
    TITLE "2:cjc039_2879"
    INDEX 01 02:17:36
  TRACK 79 AUDIO
    TITLE "0:"
    INDEX 01 02:18:68
  TRACK 80 AUDIO
    TITLE "3:cjc039_2880"
    INDEX 01 02:19:46
  TRACK 81 AUDIO
    TITLE "0:"
    INDEX 01 02:23:38
